<svg xmlns="http://www.w3.org/2000/svg" viewBox="0 0 119.67 110.7"><defs><style>.cls-1,.cls-2{fill:none;stroke:#2522a6;stroke-miterlimit:10;}.cls-1{stroke-width:24px;}.cls-2{stroke-width:26px;}.cls-3{fill:#2522a6;}.cls-4{fill:#4954e9;}.cls-5{fill:#fff;}</style></defs><title>app-icon</title><g id="Layer_2" data-name="Layer 2"><g id="Layer_1-2" data-name="Layer 1"><line class="cls-1" x1="84.19" y1="79" x2="112.19" y2="101.31"/><circle class="cls-2" cx="55.23" cy="55.23" r="42.23"/><path class="cls-3" d="M77.69,55.23a22.58,22.58,0,1,1-.16-2.58A20.08,20.08,0,0,1,77.69,55.23Z"/><path class="cls-4" d="M77.53,52.65A18.17,18.17,0,1,1,47.67,34.07a22.28,22.28,0,0,1,7.56-1.31,21.26,21.26,0,0,1,2.54.15c.29,0,.58.07.86.12A22.46,22.46,0,0,1,76.47,48c.08.25.17.5.23.76A21.55,21.55,0,0,1,77.53,52.65Z"/><path class="cls-5" d="M76.7,48.71a12,12,0,0,1-20.45-8.53A11.86,11.86,0,0,1,58.63,33,22.46,22.46,0,0,1,76.47,48C76.55,48.2,76.64,48.45,76.7,48.71Z"/></g></g></svg>