<svg xmlns="http://www.w3.org/2000/svg" viewBox="0 0 380.84 158.4"><defs><style>.cls-1{fill:#2522a6;}.cls-2,.cls-3{fill:none;stroke:#2522a6;stroke-miterlimit:10;}.cls-2{stroke-width:24px;}.cls-3{stroke-width:26px;}.cls-4{fill:#4954e9;}.cls-5{fill:#fff;}</style></defs><title>logo-svg</title><g id="Layer_2" data-name="Layer 2"><g id="Layer_1-2" data-name="Layer 1"><path class="cls-1" d="M70.81,51.64,62,86.83c-4.42-3.79-8.85-6.32-11.17-6.32C40.25,80.51,33.3,88.73,33.3,101V157H0V51.64H33.3v8.64A38.61,38.61,0,0,1,59,50,41.72,41.72,0,0,1,70.81,51.64Z"/><path class="cls-1" d="M249.16,95.89,284.57,157h-33.3L230,120.13l-8.22,10.33V157h-33.3V0h33.3V88.52l29.5-37.1h33.3Z"/><path class="cls-1" d="M380.84,122.66s-14.54,34.56-55.22,34.77c-20-.21-40.88-12.43-49.94-32.87a54.56,54.56,0,0,1,49.94-76.09A54.51,54.51,0,0,1,380,102.85c0,1.26.21,2.11-.21,3L309.4,118.44a18.8,18.8,0,0,0,16.22,8.86c17.29,0,27.61-13.28,27.61-13.28ZM304.76,93.79l37.3-6.54C337,80.3,328.58,76.71,321.2,78c-6.32,1-12.65,6.53-15.6,13.28C305.6,90.84,305.18,91.68,304.76,93.79Z"/><line class="cls-2" x1="148.73" y1="126.7" x2="176.73" y2="149.01"/><circle class="cls-3" cx="119.76" cy="102.92" r="42.23"/><path class="cls-1" d="M142.23,102.93a22.58,22.58,0,1,1-.16-2.58A20.08,20.08,0,0,1,142.23,102.93Z"/><path class="cls-4" d="M142.07,100.35a18.17,18.17,0,1,1-29.86-18.58,22.28,22.28,0,0,1,7.56-1.31,21.26,21.26,0,0,1,2.54.15c.29,0,.58.07.86.12A22.46,22.46,0,0,1,141,95.65c.08.25.17.5.23.76A21.55,21.55,0,0,1,142.07,100.35Z"/><path class="cls-5" d="M141.24,96.41a12,12,0,0,1-20.45-8.53,11.86,11.86,0,0,1,2.38-7.15A22.46,22.46,0,0,1,141,95.65C141.09,95.9,141.18,96.15,141.24,96.41Z"/></g></g></svg>